PathFileType	4	(X/Y/Z)	/Users/itak/Documents/Research/Walk-IL/dataset/trc/00399_00012.trc
DataRate	CameraRate	NumFrames	NumMarkers	Units	OrigDataRate	OrigDataStartFrame	OrigNumFrames
100.000000	100.000000	4	53	mm	100.000000	457	732
Frame#	Time	RPSI			LPSI			L3			STRN			T10			C7			CLAV			RBAK			LBAK			LSHO			LUPA			LAEL			LAOL			LWTS			LWPS			LFRA			LIFD			LHPS			LHTS			RSHO			RUPA			RAEL			RAOL			RWTS			RWPS			RFRA			RIFD			RHTS			RHPS			RBHD			LFHD			RFHD			LBHD			LHIP			RHIP			RASI			LASI			LKNE			LTHI			LANK			LTIP			LTOE			LMT1			LMT5			LHEE			RKNE			RTHI			RANK			RTIP			RTOE			RMT1			RMT5			RHEE			
		X1	Y1	Z1	X2	Y2	Z2	X3	Y3	Z3	X4	Y4	Z4	X5	Y5	Z5	X6	Y6	Z6	X7	Y7	Z7	X8	Y8	Z8	X9	Y9	Z9	X10	Y10	Z10	X11	Y11	Z11	X12	Y12	Z12	X13	Y13	Z13	X14	Y14	Z14	X15	Y15	Z15	X16	Y16	Z16	X17	Y17	Z17	X18	Y18	Z18	X19	Y19	Z19	X20	Y20	Z20	X21	Y21	Z21	X22	Y22	Z22	X23	Y23	Z23	X24	Y24	Z24	X25	Y25	Z25	X26	Y26	Z26	X27	Y27	Z27	X28	Y28	Z28	X29	Y29	Z29	X30	Y30	Z30	X31	Y31	Z31	X32	Y32	Z32	X33	Y33	Z33	X34	Y34	Z34	X35	Y35	Z35	X36	Y36	Z36	X37	Y37	Z37	X38	Y38	Z38	X39	Y39	Z39	X40	Y40	Z40	X41	Y41	Z41	X42	Y42	Z42	X43	Y43	Z43	X44	Y44	Z44	X45	Y45	Z45	X46	Y46	Z46	X47	Y47	Z47	X48	Y48	Z48	X49	Y49	Z49	X50	Y50	Z50	X51	Y51	Z51	X52	Y52	Z52	X53	Y53	Z53	

458	4.57	-374.0168762207031	951.5697631835938	-497.0258483886719	-289.4219970703125	939.8743896484375	-395.0635070800781	-332.3772583007812	1028.6279296875	-451.7753295898438	-503.9152526855469	1190.388549804688	-302.1743774414062	-322.0601501464844	1130.285888671875	-458.2915649414062	-331.3297729492188	1380.843994140625	-428.3987426757812	-455.5563049316406	1308.142578125	-332.6972961425781	-345.8652038574219	1238.368896484375	-511.4488220214844	-253.6466979980469	1338.37353515625	-364.6522521972656	-282.5682678222656	1353.920654296875	-269.5548706054688	-216.8006896972656	1235.327026367188	-253.0725402832031	-199.439208984375	1039.708129882812	-246.1427764892578	-224.0931701660156	1022.558532714844	-326.3848876953125	-272.3215026855469	819.5635986328125	-203.9139862060547	-193.1265869140625	809.7379760742188	-221.5000915527344	-194.7907409667969	935.1996459960938	-236.8652496337891	-269.1489868164062	640.9342041015625	-231.2435150146484	-208.0265197753906	721.9000244140625	-226.1290130615234	-262.5308837890625	718.9423828125	-195.2899169921875	-474.3714904785156	1369.099609375	-513.398193359375	-502.4111938476562	1304.24609375	-567.4130249023438	-567.3958129882812	1047.659912109375	-596.941162109375	-502.6531372070312	1028.550415039062	-528.3092041015625	-727.1163940429688	899.0530395507812	-475.1542053222656	-732.3694458007812	876.042724609375	-545.8284912109375	-615.6617431640625	996.4039916992188	-589.389892578125	-794.156494140625	741.0272827148438	-450.3612060546875	-790.7614135742188	812.7841796875	-464.5749816894531	-769.2255859375	796.0164184570312	-528.1759033203125	-417.0411071777344	1575.434936523438	-459.82568359375	-380.4201965332031	1572.957153320312	-262.7958679199219	-472.2011413574219	1593.437255859375	-339.6485290527344	-285.6454772949219	1544.230346679688	-373.959228515625	-290.804443359375	935.9342651367188	-250.2200622558594	-510.0512390136719	937.1431884765625	-537.9063110351562	-582.6766357421875	949.2012329101562	-413.6427917480469	-408.4398498535156	940.7666015625	-216.7332000732422	-474.3869018554688	459.3538513183594	-224.0043334960938	-417.4617614746094	591.9946899414062	-221.4853820800781	-500.8655090332031	38.73165512084961	-353.9175415039062	-485.4154663085938	226.4619598388672	-279.0869445800781	-687.5712890625	43.11756134033203	-229.6611328125	-658.5283203125	41.65399551391602	-312.2277221679688	-574.1557006835938	43.51346969604492	-250.1865692138672	-518.47265625	35.36643600463867	-418.6858825683594	-578.2413940429688	457.9517211914062	-508.0247192382812	-587.9735717773438	712.1529541015625	-489.1549072265625	-315.0941772460938	168.8435211181641	-712.2865600585938	-522.6945190429688	349.6083068847656	-550.3776245117188	-358.1379699707031	38.47632217407227	-598.7809448242188	-342.7905578613281	88.1688232421875	-694.6458129882812	-306.8363342285156	92.07173156738281	-599.3410034179688	-244.3955993652344	221.532958984375	-694.5535888671875	
459	4.58	-381.1726989746094	951.9404296875	-491.528076171875	-295.8236389160156	940.8737182617188	-390.1931762695312	-339.3801574707031	1029.791259765625	-446.0418701171875	-510.6943054199219	1191.06884765625	-295.9606628417969	-329.2710571289062	1131.244384765625	-452.6688232421875	-338.7144775390625	1381.865356445312	-422.8698425292969	-462.5885314941406	1308.767578125	-326.6938171386719	-353.333251953125	1239.381713867188	-505.8038940429688	-260.6093139648438	1339.46240234375	-359.2930908203125	-289.4724426269531	1355.031005859375	-264.1516723632812	-224.1269073486328	1236.122314453125	-246.7309722900391	-208.1210632324219	1040.450805664062	-237.4589996337891	-231.9107055664062	1022.671752929688	-317.8556213378906	-283.22265625	822.330322265625	-191.7113342285156	-204.2645111083984	810.7850952148438	-209.5374145507812	-204.5443420410156	936.085205078125	-226.7816009521484	-283.2447814941406	643.1201171875	-213.8310546875	-220.7615661621094	723.1708984375	-211.8971710205078	-274.7270812988281	722.0651245117188	-180.2149658203125	-482.2661743164062	1369.7666015625	-507.1807556152344	-510.4255981445312	1304.84521484375	-561.013671875	-575.0147705078125	1048.146850585938	-590.5445556640625	-509.2112731933594	1029.11083984375	-523.0669555664062	-729.3901977539062	893.0941162109375	-469.6090087890625	-734.9700927734375	871.4855346679688	-540.737060546875	-622.3111572265625	995.8018798828125	-583.2019653320312	-790.6478881835938	732.3383178710938	-447.1689758300781	-789.8049926757812	804.4143676757812	-459.8733825683594	-768.8446044921875	789.8091430664062	-524.204833984375	-424.7916564941406	1576.446655273438	-453.6002197265625	-386.412109375	1573.822998046875	-256.9725036621094	-478.8476867675781	1594.503662109375	-332.9168395996094	-292.7167663574219	1544.968505859375	-368.8817749023438	-296.5471801757812	937.17333984375	-244.7894744873047	-517.5457763671875	937.4915771484375	-531.006103515625	-589.4639282226562	950.0172119140625	-406.3245544433594	-413.5946655273438	941.3297729492188	-210.9146118164062	-476.3977661132812	458.8501586914062	-221.7317504882812	-420.5005798339844	592.02978515625	-218.4527435302734	-500.9291381835938	38.7803955078125	-353.9297180175781	-486.2803955078125	226.3202514648438	-278.2508544921875	-687.6844482421875	42.94762420654297	-229.5471038818359	-658.6116943359375	41.58860778808594	-312.1748657226562	-574.1298828125	43.43532943725586	-250.1427917480469	-518.5613403320312	35.48036575317383	-418.7705383300781	-595.0908813476562	459.5206298828125	-494.068115234375	-598.927001953125	714.13671875	-479.1526794433594	-336.7832641601562	170.3257293701172	-702.1950073242188	-540.6055908203125	350.9057312011719	-536.7225341796875	-383.529541015625	39.98772430419922	-588.9038696289062	-367.3867492675781	91.23667144775391	-684.5701293945312	-330.1685180664062	92.72490692138672	-589.81298828125	-264.2190856933594	220.5879821777344	-685.397216796875	
460	4.59	-388.3908081054688	952.5411376953125	-486.1195983886719	-302.1715087890625	941.9359741210938	-385.5619201660156	-346.3047485351562	1030.980834960938	-440.4556884765625	-517.3094482421875	1191.865478515625	-289.7393798828125	-336.2843017578125	1132.30078125	-447.2361755371094	-346.0226745605469	1382.954345703125	-417.4154663085938	-469.4353942871094	1309.484008789062	-320.7358703613281	-360.7341003417969	1240.477416992188	-500.2640686035156	-267.4561157226562	1340.642578125	-354.0633239746094	-296.2121887207031	1356.245361328125	-258.8658447265625	-231.2277679443359	1237.095825195312	-240.4973602294922	-216.6332550048828	1041.413940429688	-228.8324890136719	-239.3411102294922	1022.977355957031	-309.4024658203125	-294.0281372070312	825.4564819335938	-179.529296875	-215.2783355712891	812.2582397460938	-197.2815399169922	-214.1033325195312	937.24609375	-216.6455078125	-296.821044921875	645.7644653320312	-195.9595794677734	-233.2052612304688	724.9614868164062	-197.2223968505859	-286.7329711914062	725.6749267578125	-164.9332427978516	-490.1053771972656	1370.51806640625	-500.9646606445312	-518.4132690429688	1305.562866210938	-554.6148681640625	-582.431396484375	1048.73193359375	-584.1715698242188	-515.6814575195312	1029.80078125	-517.813232421875	-731.2263793945312	887.3252563476562	-464.3479614257812	-737.2494506835938	867.20166015625	-535.922119140625	-628.73095703125	995.3657836914062	-577.0933227539062	-786.899169921875	724.1524658203125	-444.6266784667969	-788.54541015625	796.45068359375	-455.6902770996094	-768.2182006835938	784.0557861328125	-520.69873046875	-432.519775390625	1577.50341796875	-447.3716735839844	-392.4071655273438	1574.702758789062	-251.1847381591797	-485.4816589355469	1595.555053710938	-326.1844177246094	-299.757568359375	1545.812255859375	-363.8138427734375	-302.1678161621094	938.4097900390625	-239.4516448974609	-525.1500854492188	938.0943603515625	-524.089111328125	-596.04296875	951.0012817382812	-398.7947387695312	-418.3622436523438	941.95068359375	-205.1297149658203	-478.3337097167969	458.4200439453125	-219.606201171875	-423.4912109375	592.1577758789062	-215.5351715087891	-500.980712890625	38.80894088745117	-353.9409790039062	-487.0895080566406	226.2084655761719	-277.4440307617188	-687.8070678710938	42.79310989379883	-229.4702301025391	-658.6915283203125	41.5343017578125	-312.1369018554688	-574.1030883789062	43.3676872253418	-250.1055603027344	-518.622314453125	35.58985900878906	-418.8370666503906	-611.3837890625	461.3627319335938	-479.7744140625	-609.971923828125	716.5598754882812	-468.6663208007812	-359.11474609375	170.8954010009766	-691.1395263671875	-558.324951171875	352.305908203125	-522.6478881835938	-410.27294921875	41.42281723022461	-577.8699951171875	-393.1137390136719	93.76718139648438	-673.3328247070312	-354.6241149902344	92.45281219482422	-579.2565307617188	-284.4103088378906	218.1972045898438	-675.412353515625	
461	4.600000000000001	-395.733154296875	953.347412109375	-480.8146362304688	-308.5028991699219	943.0535888671875	-381.1859130859375	-353.1946411132812	1032.1767578125	-435.0672912597656	-523.7246704101562	1192.787353515625	-283.485107421875	-343.154052734375	1133.451538085938	-441.9995727539062	-353.2574462890625	1384.108764648438	-412.0358276367188	-476.0796508789062	1310.316528320312	-314.8023681640625	-368.0888061523438	1241.647827148438	-494.8219909667969	-274.192138671875	1341.915161132812	-348.9769287109375	-302.7649841308594	1357.5810546875	-253.7044982910156	-238.0768280029297	1238.27490234375	-234.4055328369141	-224.9267883300781	1042.620361328125	-220.3313446044922	-246.3443298339844	1023.517211914062	-301.0840148925781	-304.75	828.9896850585938	-167.4353179931641	-226.1583404541016	814.2278442382812	-184.7399291992188	-223.4322052001953	938.7274169921875	-206.5005950927734	-309.8919982910156	648.9476318359375	-177.8028106689453	-245.33935546875	727.343505859375	-182.1388702392578	-298.616943359375	729.8151245117188	-149.5577850341797	-497.884765625	1371.359985351562	-494.7401123046875	-526.3720703125	1306.408203125	-548.204833984375	-589.5941772460938	1049.424438476562	-577.8275146484375	-522.0538940429688	1030.626342773438	-512.5037231445312	-732.6553955078125	881.8065185546875	-459.3756713867188	-739.2222290039062	863.2328491210938	-531.3749389648438	-634.87548828125	995.1026611328125	-571.0711669921875	-782.955322265625	716.5186767578125	-442.7047119140625	-787.0173950195312	788.9462890625	-452.0113220214844	-767.3715209960938	778.7960815429688	-517.6337890625	-440.2199401855469	1578.615234375	-441.1372680664062	-398.4049682617188	1575.597412109375	-245.4133605957031	-492.1073303222656	1596.587158203125	-319.4496154785156	-306.7636108398438	1546.770141601562	-358.7585754394531	-307.6546630859375	939.64208984375	-234.2964935302734	-532.9061279296875	938.9636840820312	-517.161376953125	-602.4179077148438	952.15478515625	-391.0273742675781	-422.733154296875	942.6287841796875	-199.3648529052734	-480.1534118652344	458.0624694824219	-217.6162567138672	-426.4132080078125	592.3671875	-212.7217864990234	-501.0199584960938	38.82052993774414	-353.9509582519531	-487.8139038085938	226.1315155029297	-276.6701965332031	-687.9299926757812	42.65675735473633	-229.4226989746094	-658.7621459960938	41.49585723876953	-312.1102600097656	-574.0696411132812	43.30658340454102	-250.0710296630859	-518.6552124023438	35.69742965698242	-418.8835754394531	-627.0408325195312	463.4681701660156	-465.2127685546875	-621.095947265625	719.3954467773438	-457.7120361328125	-382.0609741210938	170.5413513183594	-679.1553955078125	-575.7553100585938	353.805908203125	-508.2049865722656	-438.0018920898438	42.74333572387695	-565.5656127929688	-419.6875610351562	95.69960784912109	-660.8886108398438	-379.9399719238281	91.39952850341797	-567.614501953125	-305.0422058105469	214.4550933837891	-664.6888427734375	
